<mxfile host="app.diagrams.net" modified="2020-07-30T03:22:08.591Z" agent="5.0 (Macintosh; Intel Mac OS X 10_15_6) AppleWebKit/537.36 (KHTML, like Gecko) Chrome/84.0.4147.89 Safari/537.36" etag="o7N2YGbmgZy7dkjsRr9e" version="13.5.5" type="github">
  <diagram id="jC8cv-eFS8_fgAUudU84" name="Page-1">
    <mxGraphModel dx="2253" dy="771" grid="1" gridSize="10" guides="1" tooltips="1" connect="1" arrows="1" fold="1" page="1" pageScale="1" pageWidth="827" pageHeight="1169" math="0" shadow="0">
      <root>
        <mxCell id="0" />
        <mxCell id="1" parent="0" />
        <mxCell id="nzjUu5PDpj9lOyVyT8UU-56" value="" style="rounded=1;whiteSpace=wrap;html=1;dashed=1;fontSize=14;" vertex="1" parent="1">
          <mxGeometry x="700" y="40" width="190" height="390" as="geometry" />
        </mxCell>
        <mxCell id="nzjUu5PDpj9lOyVyT8UU-50" value="" style="rounded=1;whiteSpace=wrap;html=1;dashed=1;fontSize=14;" vertex="1" parent="1">
          <mxGeometry x="110" y="270" width="210" height="150" as="geometry" />
        </mxCell>
        <mxCell id="nzjUu5PDpj9lOyVyT8UU-49" value="" style="rounded=1;whiteSpace=wrap;html=1;fontSize=14;dashed=1;" vertex="1" parent="1">
          <mxGeometry x="484" y="40" width="206" height="330" as="geometry" />
        </mxCell>
        <mxCell id="nzjUu5PDpj9lOyVyT8UU-47" value="" style="rounded=1;whiteSpace=wrap;html=1;fontSize=14;dashed=1;" vertex="1" parent="1">
          <mxGeometry x="100" y="40" width="240" height="210" as="geometry" />
        </mxCell>
        <mxCell id="nzjUu5PDpj9lOyVyT8UU-3" value="SettingCardReaderFragment" style="text;align=center;verticalAlign=middle;rounded=0;whiteSpace=wrap;fontSize=14;" vertex="1" parent="1">
          <mxGeometry x="190" y="56" width="40" height="20" as="geometry" />
        </mxCell>
        <mxCell id="nzjUu5PDpj9lOyVyT8UU-4" value="onViewCreated()" style="text;strokeColor=none;fillColor=none;align=center;verticalAlign=middle;whiteSpace=wrap;rounded=0;fontSize=12;" vertex="1" parent="1">
          <mxGeometry x="190" y="90" width="40" height="20" as="geometry" />
        </mxCell>
        <mxCell id="nzjUu5PDpj9lOyVyT8UU-6" value="SettingCardReaderPresenter" style="text;align=center;verticalAlign=middle;rounded=0;whiteSpace=wrap;fontSize=14;" vertex="1" parent="1">
          <mxGeometry x="564" y="56" width="40" height="20" as="geometry" />
        </mxCell>
        <mxCell id="nzjUu5PDpj9lOyVyT8UU-33" style="edgeStyle=orthogonalEdgeStyle;rounded=0;orthogonalLoop=1;jettySize=auto;html=1;exitX=0.5;exitY=1;exitDx=0;exitDy=0;fontSize=14;" edge="1" parent="1" source="nzjUu5PDpj9lOyVyT8UU-7" target="nzjUu5PDpj9lOyVyT8UU-32">
          <mxGeometry relative="1" as="geometry" />
        </mxCell>
        <mxCell id="nzjUu5PDpj9lOyVyT8UU-7" value="loadCardReaderInfo()" style="text;strokeColor=none;fillColor=none;align=center;verticalAlign=middle;whiteSpace=wrap;rounded=0;fontSize=12;" vertex="1" parent="1">
          <mxGeometry x="564" y="100" width="40" height="20" as="geometry" />
        </mxCell>
        <mxCell id="nzjUu5PDpj9lOyVyT8UU-10" value="" style="endArrow=classic;html=1;fontSize=12;" edge="1" parent="1">
          <mxGeometry width="50" height="50" relative="1" as="geometry">
            <mxPoint x="270" y="100" as="sourcePoint" />
            <mxPoint x="514" y="110.004203821656" as="targetPoint" />
          </mxGeometry>
        </mxCell>
        <mxCell id="nzjUu5PDpj9lOyVyT8UU-11" value="从本地加载卡的信息" style="text;html=1;strokeColor=none;fillColor=none;align=center;verticalAlign=middle;whiteSpace=wrap;rounded=0;fontSize=12;" vertex="1" parent="1">
          <mxGeometry x="340" y="79" width="120" height="24" as="geometry" />
        </mxCell>
        <mxCell id="nzjUu5PDpj9lOyVyT8UU-12" value="loadCardReaderInfoSuccess()" style="text;strokeColor=none;fillColor=none;align=center;verticalAlign=middle;whiteSpace=wrap;rounded=0;fontSize=12;" vertex="1" parent="1">
          <mxGeometry x="130" y="120" width="180" height="30" as="geometry" />
        </mxCell>
        <mxCell id="nzjUu5PDpj9lOyVyT8UU-13" value="updateCardReader()" style="text;strokeColor=none;fillColor=none;align=center;verticalAlign=middle;whiteSpace=wrap;rounded=0;fontSize=12;" vertex="1" parent="1">
          <mxGeometry x="210" y="169" width="40" height="20" as="geometry" />
        </mxCell>
        <mxCell id="nzjUu5PDpj9lOyVyT8UU-14" value="" style="endArrow=classic;html=1;fontSize=12;entryX=0.75;entryY=0;entryDx=0;entryDy=0;" edge="1" parent="1">
          <mxGeometry width="50" height="50" relative="1" as="geometry">
            <mxPoint x="213" y="150" as="sourcePoint" />
            <mxPoint x="213" y="170" as="targetPoint" />
          </mxGeometry>
        </mxCell>
        <mxCell id="nzjUu5PDpj9lOyVyT8UU-15" value="更新卡显示列表信息" style="text;html=1;strokeColor=none;fillColor=none;align=center;verticalAlign=middle;whiteSpace=wrap;rounded=0;fontSize=10;" vertex="1" parent="1">
          <mxGeometry x="220" y="150" width="110" height="20" as="geometry" />
        </mxCell>
        <mxCell id="nzjUu5PDpj9lOyVyT8UU-16" value="" style="endArrow=classic;html=1;fontSize=12;exitX=0;exitY=1;exitDx=0;exitDy=0;" edge="1" parent="1">
          <mxGeometry width="50" height="50" relative="1" as="geometry">
            <mxPoint x="150" y="150" as="sourcePoint" />
            <mxPoint x="150" y="220" as="targetPoint" />
          </mxGeometry>
        </mxCell>
        <mxCell id="nzjUu5PDpj9lOyVyT8UU-17" value="observeCardReaderStatus()" style="text;strokeColor=none;fillColor=none;align=center;verticalAlign=middle;whiteSpace=wrap;rounded=0;fontSize=12;" vertex="1" parent="1">
          <mxGeometry x="200" y="220" width="40" height="20" as="geometry" />
        </mxCell>
        <mxCell id="nzjUu5PDpj9lOyVyT8UU-18" value="调用硬件SDK注册当前卡，监听当前卡的连接状态" style="text;html=1;strokeColor=none;fillColor=none;align=center;verticalAlign=middle;whiteSpace=wrap;rounded=0;fontSize=10;" vertex="1" parent="1">
          <mxGeometry x="165" y="197" width="165" height="20" as="geometry" />
        </mxCell>
        <mxCell id="nzjUu5PDpj9lOyVyT8UU-19" value="" style="endArrow=classic;html=1;fontSize=10;entryX=1;entryY=0.5;entryDx=0;entryDy=0;" edge="1" parent="1" target="nzjUu5PDpj9lOyVyT8UU-12">
          <mxGeometry width="50" height="50" relative="1" as="geometry">
            <mxPoint x="520" y="120" as="sourcePoint" />
            <mxPoint x="490" y="240" as="targetPoint" />
          </mxGeometry>
        </mxCell>
        <mxCell id="nzjUu5PDpj9lOyVyT8UU-20" value="加载到卡的信息" style="text;html=1;strokeColor=none;fillColor=none;align=center;verticalAlign=middle;whiteSpace=wrap;rounded=0;fontSize=12;" vertex="1" parent="1">
          <mxGeometry x="354" y="130" width="120" height="24" as="geometry" />
        </mxCell>
        <mxCell id="nzjUu5PDpj9lOyVyT8UU-21" value="onChanged()" style="text;strokeColor=none;fillColor=none;align=center;verticalAlign=middle;whiteSpace=wrap;rounded=0;fontSize=12;" vertex="1" parent="1">
          <mxGeometry x="-50" y="170" width="90" height="23" as="geometry" />
        </mxCell>
        <mxCell id="nzjUu5PDpj9lOyVyT8UU-22" value="" style="endArrow=classic;html=1;fontSize=10;exitX=1;exitY=0.5;exitDx=0;exitDy=0;" edge="1" parent="1" source="nzjUu5PDpj9lOyVyT8UU-21">
          <mxGeometry width="50" height="50" relative="1" as="geometry">
            <mxPoint y="136" as="sourcePoint" />
            <mxPoint x="170" y="181" as="targetPoint" />
          </mxGeometry>
        </mxCell>
        <mxCell id="nzjUu5PDpj9lOyVyT8UU-24" value="卡状态回调" style="text;html=1;strokeColor=none;fillColor=none;align=center;verticalAlign=middle;whiteSpace=wrap;rounded=0;fontSize=10;" vertex="1" parent="1">
          <mxGeometry x="30" y="160" width="110" height="20" as="geometry" />
        </mxCell>
        <mxCell id="nzjUu5PDpj9lOyVyT8UU-25" value="在弹出的Toast中选择卡" style="text;html=1;strokeColor=none;fillColor=none;align=center;verticalAlign=middle;whiteSpace=wrap;rounded=0;fontSize=14;" vertex="1" parent="1">
          <mxGeometry x="90" y="270" width="240" height="30" as="geometry" />
        </mxCell>
        <mxCell id="nzjUu5PDpj9lOyVyT8UU-26" value="onPick()" style="text;strokeColor=none;fillColor=none;align=center;verticalAlign=middle;whiteSpace=wrap;rounded=0;fontSize=12;" vertex="1" parent="1">
          <mxGeometry x="190" y="331" width="40" height="20" as="geometry" />
        </mxCell>
        <mxCell id="nzjUu5PDpj9lOyVyT8UU-27" value="SettingCardReaderDialog" style="text;whiteSpace=wrap;fontSize=14;" vertex="1" parent="1">
          <mxGeometry x="127" y="300" width="166" height="30" as="geometry" />
        </mxCell>
        <mxCell id="nzjUu5PDpj9lOyVyT8UU-29" value="saveCardReader()" style="text;strokeColor=none;fillColor=none;align=center;verticalAlign=middle;whiteSpace=wrap;rounded=0;fontSize=12;" vertex="1" parent="1">
          <mxGeometry x="564" y="320" width="40" height="20" as="geometry" />
        </mxCell>
        <mxCell id="nzjUu5PDpj9lOyVyT8UU-30" value="" style="endArrow=classic;html=1;fontSize=14;" edge="1" parent="1">
          <mxGeometry width="50" height="50" relative="1" as="geometry">
            <mxPoint x="240" y="340" as="sourcePoint" />
            <mxPoint x="520" y="330" as="targetPoint" />
          </mxGeometry>
        </mxCell>
        <mxCell id="nzjUu5PDpj9lOyVyT8UU-31" value="CardReaderStorage" style="text;align=center;verticalAlign=middle;rounded=0;whiteSpace=wrap;fontSize=14;" vertex="1" parent="1">
          <mxGeometry x="760" y="56" width="40" height="20" as="geometry" />
        </mxCell>
        <mxCell id="nzjUu5PDpj9lOyVyT8UU-32" value="getCardReader()" style="text;strokeColor=none;fillColor=none;align=center;verticalAlign=middle;whiteSpace=wrap;rounded=0;fontSize=12;" vertex="1" parent="1">
          <mxGeometry x="564" y="189" width="40" height="20" as="geometry" />
        </mxCell>
        <mxCell id="nzjUu5PDpj9lOyVyT8UU-36" value="get()" style="text;strokeColor=none;fillColor=none;align=center;verticalAlign=middle;whiteSpace=wrap;rounded=0;fontSize=12;" vertex="1" parent="1">
          <mxGeometry x="748" y="189" width="40" height="20" as="geometry" />
        </mxCell>
        <mxCell id="nzjUu5PDpj9lOyVyT8UU-39" value="卡的信息实际上是保存到本地的&lt;br&gt;并且会缓存到LS&amp;nbsp;" style="text;html=1;strokeColor=none;fillColor=none;align=center;verticalAlign=middle;whiteSpace=wrap;rounded=0;fontSize=14;" vertex="1" parent="1">
          <mxGeometry x="735" y="103" width="90" height="50" as="geometry" />
        </mxCell>
        <mxCell id="nzjUu5PDpj9lOyVyT8UU-40" value="save()" style="text;whiteSpace=wrap;fontSize=14;" vertex="1" parent="1">
          <mxGeometry x="755" y="315" width="50" height="30" as="geometry" />
        </mxCell>
        <mxCell id="nzjUu5PDpj9lOyVyT8UU-43" value="" style="endArrow=classic;html=1;fontSize=14;" edge="1" parent="1">
          <mxGeometry width="50" height="50" relative="1" as="geometry">
            <mxPoint x="640" y="330" as="sourcePoint" />
            <mxPoint x="750" y="330" as="targetPoint" />
          </mxGeometry>
        </mxCell>
        <mxCell id="nzjUu5PDpj9lOyVyT8UU-44" value="" style="endArrow=classic;html=1;fontSize=14;" edge="1" parent="1">
          <mxGeometry width="50" height="50" relative="1" as="geometry">
            <mxPoint x="630" y="200" as="sourcePoint" />
            <mxPoint x="750" y="200" as="targetPoint" />
          </mxGeometry>
        </mxCell>
        <mxCell id="nzjUu5PDpj9lOyVyT8UU-45" value="" style="endArrow=classic;html=1;fontSize=14;exitX=0.5;exitY=1;exitDx=0;exitDy=0;entryX=0.75;entryY=1;entryDx=0;entryDy=0;" edge="1" parent="1" source="nzjUu5PDpj9lOyVyT8UU-21" target="nzjUu5PDpj9lOyVyT8UU-32">
          <mxGeometry width="50" height="50" relative="1" as="geometry">
            <mxPoint x="400" y="400" as="sourcePoint" />
            <mxPoint x="450" y="350" as="targetPoint" />
            <Array as="points">
              <mxPoint x="-5" y="260" />
              <mxPoint x="594" y="260" />
            </Array>
          </mxGeometry>
        </mxCell>
        <mxCell id="nzjUu5PDpj9lOyVyT8UU-46" value="" style="endArrow=classic;html=1;fontSize=14;" edge="1" parent="1">
          <mxGeometry width="50" height="50" relative="1" as="geometry">
            <mxPoint x="240" y="350" as="sourcePoint" />
            <mxPoint x="300" y="230" as="targetPoint" />
            <Array as="points">
              <mxPoint x="340" y="350" />
              <mxPoint x="340" y="230" />
            </Array>
          </mxGeometry>
        </mxCell>
        <mxCell id="nzjUu5PDpj9lOyVyT8UU-51" value="getAndroidSupportCardReader()" style="text;strokeColor=none;fillColor=none;align=center;verticalAlign=middle;whiteSpace=wrap;rounded=0;fontSize=12;" vertex="1" parent="1">
          <mxGeometry x="780" y="391" width="40" height="20" as="geometry" />
        </mxCell>
        <mxCell id="nzjUu5PDpj9lOyVyT8UU-52" value="onViewInit()" style="text;strokeColor=none;fillColor=none;align=center;verticalAlign=middle;whiteSpace=wrap;rounded=0;fontSize=12;" vertex="1" parent="1">
          <mxGeometry x="190" y="390" width="40" height="20" as="geometry" />
        </mxCell>
        <mxCell id="nzjUu5PDpj9lOyVyT8UU-53" value="" style="endArrow=classic;html=1;fontSize=14;" edge="1" parent="1">
          <mxGeometry width="50" height="50" relative="1" as="geometry">
            <mxPoint x="250" y="400" as="sourcePoint" />
            <mxPoint x="710" y="400" as="targetPoint" />
          </mxGeometry>
        </mxCell>
        <mxCell id="nzjUu5PDpj9lOyVyT8UU-54" value="加载预先的卡的信息，初始化弹窗显示卡信息列表" style="text;html=1;strokeColor=none;fillColor=none;align=center;verticalAlign=middle;whiteSpace=wrap;rounded=0;fontSize=12;" vertex="1" parent="1">
          <mxGeometry x="341" y="370" width="146" height="24" as="geometry" />
        </mxCell>
      </root>
    </mxGraphModel>
  </diagram>
</mxfile>
